<?xml version="1.0"?>
<svg xmlns="http://www.w3.org/2000/svg" id="Capa_1" enable-background="new 0 0 512 512" height="512px" viewBox="0 0 512 512" width="512px"><g><g><path d="m479.103 301h-89.863c-2.492 39.06-7.756 81.019-15.044 120h79.94c11.097-32.897 20.986-72.684 24.967-120z" data-original="#000000" class="active-path" data-old_color="#000000" fill="#BD515F"/><path d="m32.943 301c4.054 47.043 14.039 87.045 25.1 120h79.761c-7.288-38.981-12.552-80.94-15.044-120z" data-original="#000000" class="active-path" data-old_color="#000000" fill="#BD515F"/><path d="m241 301h-88.174c2.582 39.196 8 81.328 15.478 120h72.696z" data-original="#000000" class="active-path" data-old_color="#000000" fill="#BD515F"/><path d="m480.383 271c.143-5.07.617-9.787.617-15 0-5.198-.487-9.933-.635-15h-448.748c-.143 5.07-.617 9.787-.617 15 0 5.198.487 9.933.635 15z" data-original="#000000" class="active-path" data-old_color="#000000" fill="#BD515F"/><path d="m271 211h88.174c-2.582-39.196-8-81.328-15.478-120h-72.696z" data-original="#000000" class="active-path" data-old_color="#000000" fill="#BD515F"/><path d="m271 301v120h72.697c7.478-38.672 12.896-80.804 15.478-120z" data-original="#000000" class="active-path" data-old_color="#000000" fill="#BD515F"/><path d="m419.418 8.291c-2.549-5.083-7.734-8.291-13.418-8.291h-300c-5.684 0-10.869 3.208-13.418 8.291-6.359 12.724-14.93 31.32-23.633 52.709h373.989c-8.886-22.013-17.529-40.73-23.52-52.709z" data-original="#000000" class="active-path" data-old_color="#000000" fill="#BD515F"/><path d="m106 512h300c5.684 0 10.869-3.208 13.418-8.291 6.359-12.724 14.93-31.32 23.633-52.709h-373.989c8.886 22.013 17.529 40.73 23.52 52.709 2.549 5.083 7.734 8.291 13.418 8.291z" data-original="#000000" class="active-path" data-old_color="#000000" fill="#BD515F"/><path d="m241 211v-120h-75.619c-6.052 39.507-10.519 81.608-12.751 120z" data-original="#000000" class="active-path" data-old_color="#000000" fill="#BD515F"/><path d="m135.066 91h-77.203c-11.096 32.897-20.986 72.684-24.966 120h89.685c2.173-38.302 6.541-80.283 12.484-120z" data-original="#000000" class="active-path" data-old_color="#000000" fill="#BD515F"/><path d="m389.24 211h89.817c-4.054-47.043-14.039-87.045-25.1-120h-79.761c7.288 38.981 12.552 80.94 15.044 120z" data-original="#000000" class="active-path" data-old_color="#000000" fill="#BD515F"/></g></g> </svg>
